<?xml version="1.0" encoding="UTF-8"?>
<svg id="Layer_1" data-name="Layer 1" xmlns="http://www.w3.org/2000/svg" viewBox="0 0 10 10.01">
  <defs>
    <style>
      .cls-1 {
        fill: #fff;
      }
    </style>
  </defs>
  <path class="cls-1" d="M9.64.42c.19-.02.36.15.36.36v8.87c0,.21-.15.36-.36.36H.77c-.21,0-.38-.17-.36-.36l-.02-.83c0-.21.17-.38.36-.36l6.6-.02L.11,1.21c-.14-.13-.15-.35-.02-.49,0,0,.01-.01.02-.02L.71.1C.85-.03,1.07-.03,1.22.1l7.24,7.24V.76c-.02-.19.15-.36.36-.36l.83.02h0Z"/>
</svg>