<?xml version="1.0" encoding="UTF-8"?>
<svg id="Layer_1" data-name="Layer 1" xmlns="http://www.w3.org/2000/svg" viewBox="0 0 10.01 10">
  <defs>
    <style>
      .cls-1 {
        fill: #fff;
      }
    </style>
  </defs>
  <path class="cls-1" d="M.42.36c-.02-.19.15-.36.36-.36h8.87c.21,0,.36.15.36.36v8.87c0,.21-.17.38-.36.36l-.83.02c-.21,0-.38-.17-.36-.36l-.02-6.6L1.21,9.89c-.13.14-.35.15-.49.02,0,0-.01-.01-.02-.02l-.59-.6c-.14-.14-.14-.37,0-.51L7.34,1.55H.76c-.19.02-.36-.15-.36-.36l.02-.83H.42Z"/>
</svg>