<?xml version="1.0" encoding="UTF-8"?>
<svg id="Layer_1" data-name="Layer 1" xmlns="http://www.w3.org/2000/svg" viewBox="0 0 19.25 22">
  <defs>
    <style>
      .cls-1 {
        fill: #fff;
      }
    </style>
  </defs>
  <path class="cls-1" d="M12.38,1.25c-.04.3-.17.73-.34.95l-3.57,4h2.54c.34,0,.69.34.69.69v.69c0,.39-.34.69-.69.69h-4.81c-.39,0-.69-.3-.69-.69v-.56c0-.26.13-.69.3-.9l3.57-4.04h-2.49c-.39,0-.69-.3-.69-.69v-.69c0-.34.3-.69.69-.69h4.81c.34,0,.69.34.69.69v.56ZM8.59,11c.56,0,1.03.47,1.03,1.03v1.12c-.04.3-.21.73-.43.95l-5.24,5.16h4.98c.34,0,.69.34.69.69v1.38c0,.39-.34.69-.69.69H1.03c-.6,0-1.03-.43-1.03-1.03v-1.07c0-.3.17-.73.39-.95l5.24-5.2H1.38c-.39,0-.69-.3-.69-.69v-1.38c0-.34.3-.69.69-.69h7.22ZM18.56,9.62c.34,0,.69.34.69.69v.56c-.04.3-.17.73-.34.95l-3.57,4h2.54c.34,0,.69.34.69.69v.69c0,.39-.34.69-.69.69h-4.81c-.39,0-.69-.3-.69-.69v-.56c0-.26.13-.69.3-.9l3.57-4.04h-2.49c-.39,0-.69-.3-.69-.69v-.69c0-.34.3-.69.69-.69h4.81Z"/>
</svg>